{
    "asset" : {
        "generator" : "Khronos glTF Blender I/O v3.2.43",
        "version" : "2.0"
    },
    "scene" : 0,
    "scenes" : [
        {
            "name" : "Scene",
            "nodes" : [
                0,
                1,
                2
            ]
        }
    ],
    "nodes" : [
        {
            "mesh" : 0,
            "name" : "Cube",
            "scale" : [
                15,
                10,
                15
            ],
            "translation" : [
                0,
                10,
                0
            ]
        },
        {
            "mesh" : 1,
            "name" : "Cube.001",
            "scale" : [
                23.835281372070312,
                0.6552809476852417,
                22.915279388427734
            ],
            "translation" : [
                0.9020744562149048,
                0.6501615047454834,
                -2.160769462585449
            ]
        },
        {
            "mesh" : 2,
            "name" : "Cube.002",
            "scale" : [
                1.6350234746932983,
                1.6350234746932983,
                1.6350234746932983
            ],
            "translation" : [
                -11.839651107788086,
                3.0399577617645264,
                6.048101902008057
            ]
        }
    ],
    "materials" : [
        {
            "doubleSided" : true,
            "name" : "ceiling",
            "pbrMetallicRoughness" : {
                "baseColorTexture" : {
                    "index" : 0
                },
                "metallicFactor" : 0,
                "roughnessFactor" : 0.5
            }
        },
        {
            "doubleSided" : true,
            "name" : "walls",
            "pbrMetallicRoughness" : {
                "baseColorTexture" : {
                    "index" : 1
                },
                "metallicFactor" : 0,
                "roughnessFactor" : 0.5
            }
        },
        {
            "doubleSided" : true,
            "name" : "floor",
            "pbrMetallicRoughness" : {
                "baseColorTexture" : {
                    "index" : 2
                },
                "metallicFactor" : 0,
                "roughnessFactor" : 0.5
            }
        },
        {
            "doubleSided" : true,
            "name" : "wood",
            "pbrMetallicRoughness" : {
                "baseColorTexture" : {
                    "index" : 3
                },
                "metallicFactor" : 0,
                "roughnessFactor" : 0.5
            }
        },
        {
            "doubleSided" : true,
            "name" : "chess",
            "pbrMetallicRoughness" : {
                "baseColorTexture" : {
                    "index" : 4
                },
                "metallicFactor" : 0,
                "roughnessFactor" : 0.5
            }
        }
    ],
    "meshes" : [
        {
            "name" : "Cube.001",
            "primitives" : [
                {
                    "attributes" : {
                        "POSITION" : 0,
                        "NORMAL" : 1,
                        "TEXCOORD_0" : 2
                    },
                    "indices" : 3,
                    "material" : 0
                },
                {
                    "attributes" : {
                        "POSITION" : 4,
                        "NORMAL" : 5,
                        "TEXCOORD_0" : 6
                    },
                    "indices" : 7,
                    "material" : 1
                }
            ]
        },
        {
            "name" : "Cube",
            "primitives" : [
                {
                    "attributes" : {
                        "POSITION" : 8,
                        "NORMAL" : 9,
                        "TEXCOORD_0" : 10
                    },
                    "indices" : 11,
                    "material" : 2
                }
            ]
        },
        {
            "name" : "Cube.002",
            "primitives" : [
                {
                    "attributes" : {
                        "POSITION" : 12,
                        "NORMAL" : 13,
                        "TEXCOORD_0" : 14
                    },
                    "indices" : 15,
                    "material" : 3
                },
                {
                    "attributes" : {
                        "POSITION" : 16,
                        "NORMAL" : 17,
                        "TEXCOORD_0" : 18
                    },
                    "indices" : 19,
                    "material" : 4
                }
            ]
        }
    ],
    "textures" : [
        {
            "sampler" : 0,
            "source" : 0
        },
        {
            "sampler" : 0,
            "source" : 1
        },
        {
            "sampler" : 0,
            "source" : 2
        },
        {
            "sampler" : 0,
            "source" : 3
        },
        {
            "sampler" : 0,
            "source" : 4
        }
    ],
    "images" : [
        {
            "bufferView" : 4,
            "mimeType" : "image/jpeg",
            "name" : "TexturesCom_RooftilesMetal0001_1_seamless_S"
        },
        {
            "bufferView" : 9,
            "mimeType" : "image/jpeg",
            "name" : "TexturesCom_MarbleTiles0045_1_seamless_S"
        },
        {
            "bufferView" : 14,
            "mimeType" : "image/jpeg",
            "name" : "TexturesCom_MarbleTiles0065_1_seamless_S"
        },
        {
            "bufferView" : 19,
            "mimeType" : "image/png",
            "name" : "TexturesCom_Wood_SidingOutdoor6_2x2_512_albedo"
        },
        {
            "bufferView" : 24,
            "mimeType" : "image/jpeg",
            "name" : "chess"
        }
    ],
    "accessors" : [
        {
            "bufferView" : 0,
            "componentType" : 5126,
            "count" : 32,
            "max" : [
                1,
                1,
                1
            ],
            "min" : [
                -1,
                -1,
                -1
            ],
            "type" : "VEC3"
        },
        {
            "bufferView" : 1,
            "componentType" : 5126,
            "count" : 32,
            "type" : "VEC3"
        },
        {
            "bufferView" : 2,
            "componentType" : 5126,
            "count" : 32,
            "type" : "VEC2"
        },
        {
            "bufferView" : 3,
            "componentType" : 5123,
            "count" : 54,
            "type" : "SCALAR"
        },
        {
            "bufferView" : 5,
            "componentType" : 5126,
            "count" : 32,
            "max" : [
                1,
                1,
                1
            ],
            "min" : [
                -1,
                -1,
                -1
            ],
            "type" : "VEC3"
        },
        {
            "bufferView" : 6,
            "componentType" : 5126,
            "count" : 32,
            "type" : "VEC3"
        },
        {
            "bufferView" : 7,
            "componentType" : 5126,
            "count" : 32,
            "type" : "VEC2"
        },
        {
            "bufferView" : 8,
            "componentType" : 5123,
            "count" : 48,
            "type" : "SCALAR"
        },
        {
            "bufferView" : 10,
            "componentType" : 5126,
            "count" : 24,
            "max" : [
                1,
                1,
                1
            ],
            "min" : [
                -1,
                -1,
                -1
            ],
            "type" : "VEC3"
        },
        {
            "bufferView" : 11,
            "componentType" : 5126,
            "count" : 24,
            "type" : "VEC3"
        },
        {
            "bufferView" : 12,
            "componentType" : 5126,
            "count" : 24,
            "type" : "VEC2"
        },
        {
            "bufferView" : 13,
            "componentType" : 5123,
            "count" : 36,
            "type" : "SCALAR"
        },
        {
            "bufferView" : 15,
            "componentType" : 5126,
            "count" : 20,
            "max" : [
                1,
                1,
                1
            ],
            "min" : [
                -1,
                -1,
                -1
            ],
            "type" : "VEC3"
        },
        {
            "bufferView" : 16,
            "componentType" : 5126,
            "count" : 20,
            "type" : "VEC3"
        },
        {
            "bufferView" : 17,
            "componentType" : 5126,
            "count" : 20,
            "type" : "VEC2"
        },
        {
            "bufferView" : 18,
            "componentType" : 5123,
            "count" : 30,
            "type" : "SCALAR"
        },
        {
            "bufferView" : 20,
            "componentType" : 5126,
            "count" : 4,
            "max" : [
                1,
                1,
                1
            ],
            "min" : [
                -1,
                1,
                -1
            ],
            "type" : "VEC3"
        },
        {
            "bufferView" : 21,
            "componentType" : 5126,
            "count" : 4,
            "type" : "VEC3"
        },
        {
            "bufferView" : 22,
            "componentType" : 5126,
            "count" : 4,
            "type" : "VEC2"
        },
        {
            "bufferView" : 23,
            "componentType" : 5123,
            "count" : 6,
            "type" : "SCALAR"
        }
    ],
    "bufferViews" : [
        {
            "buffer" : 0,
            "byteLength" : 384,
            "byteOffset" : 0
        },
        {
            "buffer" : 0,
            "byteLength" : 384,
            "byteOffset" : 384
        },
        {
            "buffer" : 0,
            "byteLength" : 256,
            "byteOffset" : 768
        },
        {
            "buffer" : 0,
            "byteLength" : 108,
            "byteOffset" : 1024
        },
        {
            "buffer" : 0,
            "byteLength" : 479149,
            "byteOffset" : 1132
        },
        {
            "buffer" : 0,
            "byteLength" : 384,
            "byteOffset" : 480284
        },
        {
            "buffer" : 0,
            "byteLength" : 384,
            "byteOffset" : 480668
        },
        {
            "buffer" : 0,
            "byteLength" : 256,
            "byteOffset" : 481052
        },
        {
            "buffer" : 0,
            "byteLength" : 96,
            "byteOffset" : 481308
        },
        {
            "buffer" : 0,
            "byteLength" : 1231406,
            "byteOffset" : 481404
        },
        {
            "buffer" : 0,
            "byteLength" : 288,
            "byteOffset" : 1712812
        },
        {
            "buffer" : 0,
            "byteLength" : 288,
            "byteOffset" : 1713100
        },
        {
            "buffer" : 0,
            "byteLength" : 192,
            "byteOffset" : 1713388
        },
        {
            "buffer" : 0,
            "byteLength" : 72,
            "byteOffset" : 1713580
        },
        {
            "buffer" : 0,
            "byteLength" : 538976,
            "byteOffset" : 1713652
        },
        {
            "buffer" : 0,
            "byteLength" : 240,
            "byteOffset" : 2252628
        },
        {
            "buffer" : 0,
            "byteLength" : 240,
            "byteOffset" : 2252868
        },
        {
            "buffer" : 0,
            "byteLength" : 160,
            "byteOffset" : 2253108
        },
        {
            "buffer" : 0,
            "byteLength" : 60,
            "byteOffset" : 2253268
        },
        {
            "buffer" : 0,
            "byteLength" : 384695,
            "byteOffset" : 2253328
        },
        {
            "buffer" : 0,
            "byteLength" : 48,
            "byteOffset" : 2638024
        },
        {
            "buffer" : 0,
            "byteLength" : 48,
            "byteOffset" : 2638072
        },
        {
            "buffer" : 0,
            "byteLength" : 32,
            "byteOffset" : 2638120
        },
        {
            "buffer" : 0,
            "byteLength" : 12,
            "byteOffset" : 2638152
        },
        {
            "buffer" : 0,
            "byteLength" : 124590,
            "byteOffset" : 2638164
        }
    ],
    "samplers" : [
        {
            "magFilter" : 9729,
            "minFilter" : 9987
        }
    ],
    "buffers" : [
        {
            "byteLength" : 2762756,
            "uri" : "data:application/octet-stream;base64,"
        }
    ]
}
